<svg width="49" height="49" viewBox="0 0 49 49" fill="none" xmlns="http://www.w3.org/2000/svg">
<path d="M47.9569 37.866L36.7512 26.6603C34.5407 24.4498 31.2392 24.0191 28.5789 25.3301L18.378 15.1292V9.1866L6.12919 0L0.00478462 6.1244L9.19139 18.3732H15.134L25.3349 28.5742C24.0335 31.2344 24.4545 34.5359 26.6651 36.7464L37.8708 47.9522C39.2679 49.3493 41.5263 49.3493 42.9139 47.9522L47.9569 42.9091C49.3445 41.512 49.3445 39.2536 47.9569 37.866ZM31.7464 21.5311C34.4545 21.5311 37 22.5837 38.9139 24.4976L40.7703 26.3541C42.2823 25.6938 43.7177 24.7751 44.9617 23.5311C48.512 19.9809 49.7177 14.9856 48.5885 10.4498C48.378 9.58852 47.2966 9.29187 46.6651 9.92344L39.5455 17.0431L33.0478 15.9617L31.9665 9.46412L39.0861 2.3445C39.7177 1.71292 39.4115 0.631579 38.5407 0.411483C34.0048 -0.708134 29.0096 0.497608 25.4689 4.03828C22.7416 6.76555 21.4593 10.3636 21.5263 13.9522L29.3828 21.8086C30.1579 21.6268 30.9617 21.5311 31.7464 21.5311ZM21.8038 29.378L16.378 23.9522L1.79426 38.5455C-0.598086 40.9378 -0.598086 44.8134 1.79426 47.2057C4.1866 49.5981 8.0622 49.5981 10.4545 47.2057L22.2823 35.378C21.555 33.4737 21.3349 31.3971 21.8038 29.378ZM6.12919 45.1675C4.86603 45.1675 3.83254 44.134 3.83254 42.8708C3.83254 41.5981 4.85646 40.5742 6.12919 40.5742C7.40191 40.5742 8.42584 41.5981 8.42584 42.8708C8.42584 44.134 7.40191 45.1675 6.12919 45.1675Z" fill="white"/>
</svg>
