<svg width="57" height="54" viewBox="0 0 57 54" fill="none" xmlns="http://www.w3.org/2000/svg">
<path d="M53.5466 18.152L38.4011 15.9485L31.6317 2.25136C30.4188 -0.190112 26.9046 -0.221148 25.6813 2.25136L18.9119 15.9485L3.76639 18.152C1.05035 18.5451 -0.0381379 21.8866 1.93151 23.8005L12.889 34.4561L10.2973 49.5084C9.83083 52.2292 12.7024 54.2672 15.1074 52.9947L28.6565 45.8876L42.2056 52.9947C44.6107 54.2569 47.4822 52.2292 47.0157 49.5084L44.4241 34.4561L55.3815 23.8005C57.3512 21.8866 56.2627 18.5451 53.5466 18.152V18.152ZM39.0853 32.7181L41.5421 47.0359L28.6565 40.2804L15.7709 47.0359L18.2277 32.7181L7.79898 22.5797L22.2085 20.49L28.6565 7.45502L35.1045 20.49L49.514 22.5797L39.0853 32.7181V32.7181Z" fill="white"/>
</svg>
