<svg width="33" height="49" viewBox="0 0 33 49" fill="none" xmlns="http://www.w3.org/2000/svg">
<path d="M16.5442 0C9.05912 0 4.21104 3.12978 0.404806 8.71147C-0.28566 9.72401 -0.0727908 11.1123 0.890373 11.8576L4.93564 14.988C5.90837 15.7407 7.2924 15.5647 8.05395 14.591C10.4029 11.5877 12.1454 9.85857 15.8145 9.85857C18.6994 9.85857 22.2677 11.7534 22.2677 14.6084C22.2677 16.7667 20.5219 17.8751 17.6734 19.505C14.3516 21.4056 9.9558 23.771 9.9558 29.6883V30.625C9.9558 31.8935 10.9634 32.9219 12.2064 32.9219H19.0024C20.2454 32.9219 21.253 31.8935 21.253 30.625V30.0725C21.253 25.9707 33 25.7998 33 14.7C33.0001 6.34091 24.5039 0 16.5442 0ZM15.6044 35.7412C12.0226 35.7412 9.10854 38.7152 9.10854 42.3706C9.10854 46.026 12.0226 49 15.6044 49C19.1863 49 22.1003 46.026 22.1003 42.3705C22.1003 38.7151 19.1863 35.7412 15.6044 35.7412Z" fill="white"/>
</svg>
