<svg width="49" height="54" viewBox="0 0 49 54" fill="none" xmlns="http://www.w3.org/2000/svg">
<path d="M42.4874 26.8957L47.9928 17.6469C49.4837 15.142 47.6399 11.9967 44.6808 11.9967H33.6183L27.8295 2.27304C27.0897 1.03043 25.8036 0.4086 24.5175 0.4086C23.2315 0.4086 21.9454 1.03043 21.2056 2.27304L15.4168 11.9967H4.35323C1.39413 11.9967 -0.44962 15.142 1.04131 17.6469L6.54773 26.8957L1.04131 36.1444C-0.44962 38.6493 1.39413 41.7946 4.35323 41.7946H15.4168L21.2056 51.5183C21.9454 52.7609 23.2315 53.3827 24.5175 53.3827C25.8036 53.3827 27.0897 52.7609 27.8295 51.5183L33.6183 41.7946H44.6819C47.641 41.7946 49.4847 38.6493 47.9938 36.1444L42.4874 26.8957ZM41.1651 17.7907L39.1165 21.232L37.0679 17.7907H41.1651ZM35.7446 26.8957L30.324 36.0006H18.7111L13.2905 26.8957L18.7101 17.7907H30.324L35.7446 26.8957V26.8957ZM24.5175 8.03605L26.8755 11.9967H22.1606L24.5175 8.03605ZM7.87001 17.7907H11.9672L9.91862 21.232L7.87001 17.7907ZM7.87001 36.0006L9.91862 32.5594L11.9672 36.0006H7.87001ZM24.5175 45.7553L22.1596 41.7946H26.8745L24.5175 45.7553ZM37.0668 36.0006L39.1154 32.5594L41.1651 36.0006H37.0668V36.0006Z" fill="#D94949"/>
</svg>
