<svg width="336" height="53" viewBox="0 0 336 53" fill="none" xmlns="http://www.w3.org/2000/svg">
<path d="M38.0252 7.75324L33.5364 12.3088L35.824 14.6304C36.6354 15.4539 36.6354 16.7855 35.824 17.6003L34.322 19.1247C35.3406 21.4112 35.9103 23.9518 35.9103 26.6238C35.9103 36.6899 27.8737 44.8462 17.9552 44.8462C8.03666 44.8462 0 36.6987 0 26.6326C0 16.5665 8.03666 8.4103 17.9552 8.4103C20.588 8.4103 23.0914 8.9885 25.3444 10.0223L26.8464 8.4979C27.6578 7.67439 28.97 7.67439 29.7728 8.4979L32.0603 10.8195L36.5491 6.26392L38.0252 7.75324ZM43.1614 5.25643H41.0897C40.52 5.25643 40.0538 5.72951 40.0538 6.30772C40.0538 6.88593 40.52 7.35901 41.0897 7.35901H43.1614C43.7312 7.35901 44.1973 6.88593 44.1973 6.30772C44.1973 5.72951 43.7312 5.25643 43.1614 5.25643ZM37.9821 0C37.4123 0 36.9462 0.473079 36.9462 1.05129V3.15386C36.9462 3.73207 37.4123 4.20515 37.9821 4.20515C38.5518 4.20515 39.0179 3.73207 39.0179 3.15386V1.05129C39.0179 0.473079 38.5518 0 37.9821 0ZM40.9084 4.8184L42.3759 3.32908C42.7816 2.91732 42.7816 2.25151 42.3759 1.83975C41.9702 1.428 41.3141 1.428 40.9084 1.83975L39.4409 3.32908C39.0352 3.74083 39.0352 4.40664 39.4409 4.8184C39.8553 5.23015 40.5113 5.23015 40.9084 4.8184ZM35.0557 4.8184C35.4614 5.23015 36.1175 5.23015 36.5232 4.8184C36.9289 4.40664 36.9289 3.74083 36.5232 3.32908L35.0557 1.83975C34.65 1.428 33.9939 1.428 33.5882 1.83975C33.1825 2.25151 33.1825 2.91732 33.5882 3.32908L35.0557 4.8184ZM40.9084 7.79705C40.5027 7.38529 39.8466 7.38529 39.4409 7.79705C39.0352 8.2088 39.0352 8.87461 39.4409 9.28637L40.9084 10.7757C41.3141 11.1874 41.9702 11.1874 42.3759 10.7757C42.7816 10.3639 42.7816 9.69812 42.3759 9.28637L40.9084 7.79705ZM9.66816 23.8292C9.66816 20.7366 12.1456 18.2223 15.1928 18.2223C15.9525 18.2223 16.574 17.5915 16.574 16.8206C16.574 16.0496 15.9525 15.4189 15.1928 15.4189C10.6263 15.4189 6.90583 19.1947 6.90583 23.8292C6.90583 24.6001 7.52735 25.2309 8.287 25.2309C9.04664 25.2309 9.66816 24.6001 9.66816 23.8292Z" fill="white"/>
<path d="M87.268 8.16047C87.9963 8.16047 88.6226 8.42649 89.1469 8.95853C89.7004 9.46101 89.9771 10.0965 89.9771 10.865V36.5359C89.9771 37.3044 89.7295 37.9546 89.2343 38.4867C88.7391 38.9891 88.0837 39.2404 87.268 39.2404C86.4524 39.2404 85.7824 38.9891 85.258 38.4867C84.7628 37.9842 84.5152 37.3339 84.5152 36.5359V18.6682L77.3055 29.841C77.0142 30.1957 76.6792 30.4913 76.3006 30.7278C75.9219 30.9347 75.5286 31.0233 75.1208 30.9938C74.7421 31.0233 74.3634 30.9347 73.9847 30.7278C73.606 30.4913 73.271 30.1957 72.9797 29.841L65.77 18.2692V36.5359C65.77 37.3339 65.537 37.9842 65.0709 38.4867C64.6048 38.9891 63.9931 39.2404 63.2357 39.2404C62.5075 39.2404 61.9103 38.9891 61.4442 38.4867C60.9781 37.9546 60.7451 37.3044 60.7451 36.5359V10.865C60.7451 10.1261 61.0073 9.49057 61.5316 8.95853C62.0851 8.42649 62.7405 8.16047 63.4979 8.16047C63.9349 8.16047 64.3718 8.2787 64.8087 8.51516C65.2457 8.72206 65.5807 9.00286 65.8137 9.35756L75.3393 24.2103L85.127 9.35756C85.36 9.00286 85.6659 8.72206 86.0446 8.51516C86.4524 8.2787 86.8602 8.16047 87.268 8.16047Z" fill="white"/>
<path d="M101.047 36.5359C101.047 37.3044 100.799 37.9546 100.304 38.4867C99.8086 38.9891 99.1823 39.2404 98.4249 39.2404C97.6676 39.2404 97.0413 38.9891 96.546 38.4867C96.0508 37.9546 95.8032 37.3044 95.8032 36.5359V18.2249C95.8032 17.4564 96.0508 16.8209 96.546 16.3184C97.0413 15.7864 97.6676 15.5203 98.4249 15.5203C99.1823 15.5203 99.8086 15.7864 100.304 16.3184C100.799 16.8209 101.047 17.4564 101.047 18.2249V36.5359ZM98.3812 12.6385C97.3908 12.6385 96.6917 12.4759 96.2839 12.1508C95.8761 11.8256 95.6721 11.2492 95.6721 10.4216V9.57924C95.6721 8.75162 95.8906 8.17525 96.3276 7.85011C96.7645 7.52498 97.4636 7.36241 98.4249 7.36241C99.4445 7.36241 100.158 7.52498 100.566 7.85011C100.974 8.17525 101.178 8.75162 101.178 9.57924V10.4216C101.178 11.2788 100.959 11.87 100.522 12.1951C100.114 12.4907 99.4008 12.6385 98.3812 12.6385Z" fill="white"/>
<path d="M118.932 15.077C121.904 15.077 123.957 15.9785 125.093 17.7815C126.229 19.555 126.797 22.023 126.797 25.1857V36.5359C126.797 37.3044 126.55 37.9546 126.055 38.4867C125.559 38.9891 124.933 39.2404 124.176 39.2404C123.418 39.2404 122.792 38.9891 122.297 38.4867C121.802 37.9546 121.554 37.3044 121.554 36.5359V25.1857C121.554 23.56 121.219 22.289 120.549 21.3728C119.879 20.4269 118.728 19.954 117.097 19.954C115.408 19.954 114.082 20.4565 113.121 21.4614C112.16 22.4368 111.679 23.6783 111.679 25.1857V36.5359C111.679 37.3044 111.431 37.9546 110.936 38.4867C110.441 38.9891 109.815 39.2404 109.057 39.2404C108.3 39.2404 107.674 38.9891 107.178 38.4867C106.683 37.9546 106.435 37.3044 106.435 36.5359V18.2249C106.435 17.4564 106.683 16.8209 107.178 16.3184C107.674 15.7864 108.3 15.5203 109.057 15.5203C109.815 15.5203 110.441 15.7864 110.936 16.3184C111.431 16.8209 111.679 17.4564 111.679 18.2249V18.9786C112.465 17.9145 113.485 16.9982 114.738 16.2297C116.019 15.4612 117.417 15.077 118.932 15.077Z" fill="white"/>
<path d="M153.438 26.8262C153.409 27.5355 153.133 28.1119 152.608 28.5553C152.084 28.9986 151.472 29.2203 150.773 29.2203H136.354C136.703 30.9642 137.504 32.3387 138.757 33.3436C140.009 34.319 141.422 34.8067 142.995 34.8067C144.19 34.8067 145.122 34.7033 145.792 34.4964C146.462 34.2599 146.986 34.0234 147.365 33.787C147.773 33.521 148.049 33.3436 148.195 33.2549C148.719 32.9889 149.215 32.8559 149.681 32.8559C150.292 32.8559 150.817 33.0776 151.254 33.521C151.691 33.9643 151.909 34.4816 151.909 35.0727C151.909 35.8708 151.501 36.595 150.686 37.2452C149.87 37.9251 148.778 38.5014 147.408 38.9744C146.039 39.4473 144.656 39.6838 143.257 39.6838C140.811 39.6838 138.669 39.1665 136.834 38.132C135.028 37.0975 133.63 35.6787 132.64 33.8757C131.649 32.0431 131.154 29.9888 131.154 27.7129C131.154 25.1709 131.678 22.9393 132.727 21.0181C133.776 19.0968 135.159 17.6337 136.878 16.6287C138.597 15.5942 140.432 15.077 142.384 15.077C144.306 15.077 146.112 15.609 147.802 16.6731C149.52 17.7372 150.89 19.1707 151.909 20.9737C152.929 22.7767 153.438 24.7276 153.438 26.8262ZM142.384 19.954C139.004 19.954 137.009 21.5649 136.397 24.7867H147.845V24.4763C147.729 23.2349 147.132 22.1708 146.054 21.2841C144.976 20.3974 143.753 19.954 142.384 19.954Z" fill="white"/>
<path d="M168.08 39.6838C165.982 39.6838 164.118 39.4177 162.487 38.8857C160.855 38.3537 159.326 37.4521 157.899 36.1812C157.112 35.4718 156.719 34.6885 156.719 33.8313C156.719 33.1515 156.967 32.5603 157.462 32.0579C157.957 31.5258 158.554 31.2598 159.253 31.2598C159.807 31.2598 160.302 31.4372 160.739 31.7918C161.904 32.7672 163.04 33.4766 164.147 33.92C165.254 34.3634 166.565 34.585 168.08 34.585C169.711 34.585 171.109 34.2156 172.274 33.4766C173.469 32.7377 174.066 31.8214 174.066 30.7278C174.066 29.3977 173.483 28.3632 172.318 27.6242C171.153 26.8557 169.303 26.2793 166.769 25.8951C160.389 24.9492 157.2 21.9344 157.2 16.8504C157.2 14.9883 157.68 13.3774 158.642 12.0177C159.603 10.6285 160.914 9.57924 162.574 8.86985C164.234 8.13091 166.084 7.76144 168.123 7.76144C169.959 7.76144 171.677 8.04224 173.279 8.60383C174.911 9.16543 176.265 9.90437 177.343 10.8207C178.188 11.5005 178.61 12.2838 178.61 13.1705C178.61 13.8503 178.363 14.4563 177.867 14.9883C177.372 15.4908 176.79 15.742 176.12 15.742C175.683 15.742 175.289 15.609 174.94 15.343C174.182 14.7223 173.119 14.1607 171.75 13.6582C170.41 13.1262 169.201 12.8601 168.123 12.8601C166.288 12.8601 164.861 13.2148 163.841 13.9242C162.851 14.604 162.356 15.5056 162.356 16.6287C162.356 17.8997 162.865 18.8604 163.885 19.5106C164.934 20.1609 166.565 20.6929 168.779 21.1067C171.284 21.5501 173.279 22.1265 174.765 22.8359C176.28 23.5157 177.416 24.4615 178.173 25.6734C178.931 26.8557 179.309 28.437 179.309 30.4174C179.309 32.2795 178.785 33.92 177.736 35.3388C176.717 36.728 175.348 37.8068 173.629 38.5753C171.91 39.3143 170.061 39.6838 168.08 39.6838Z" fill="white"/>
<path d="M210.799 15.5203C211.499 15.5203 212.081 15.7864 212.547 16.3184C213.042 16.8209 213.29 17.4711 213.29 18.2692C213.29 18.5352 213.232 18.8751 213.115 19.2889L206.43 37.5556C206.255 38.0876 205.935 38.5162 205.469 38.8414C205.032 39.1369 204.551 39.2847 204.027 39.2847L203.677 39.2404C202.687 39.1813 201.944 38.6197 201.449 37.5556L197.735 26.6488L194.195 37.5556C193.7 38.6197 192.957 39.1813 191.967 39.2404L191.617 39.2847C191.093 39.2847 190.598 39.1369 190.132 38.8414C189.695 38.5162 189.389 38.0876 189.214 37.5556L182.529 19.2889C182.412 18.9638 182.354 18.6239 182.354 18.2692C182.354 17.5303 182.587 16.8948 183.053 16.3627C183.548 15.8011 184.189 15.5203 184.976 15.5203C185.558 15.5203 186.053 15.6681 186.461 15.9637C186.898 16.2297 187.204 16.6435 187.379 17.2051L192.098 30.1957L195.55 20.7077C196.016 19.6141 196.817 19.0673 197.953 19.0673C198.565 19.0673 199.031 19.2003 199.351 19.4663C199.701 19.7323 199.992 20.1461 200.225 20.7077L203.59 29.974L208.265 17.2051C208.44 16.6435 208.746 16.2297 209.183 15.9637C209.62 15.6681 210.159 15.5203 210.799 15.5203Z" fill="white"/>
<path d="M238.396 26.8262C238.367 27.5355 238.09 28.1119 237.566 28.5553C237.042 28.9986 236.43 29.2203 235.731 29.2203H221.312C221.661 30.9642 222.462 32.3387 223.715 33.3436C224.967 34.319 226.38 34.8067 227.953 34.8067C229.147 34.8067 230.08 34.7033 230.75 34.4964C231.42 34.2599 231.944 34.0234 232.323 33.787C232.73 33.521 233.007 33.3436 233.153 33.2549C233.677 32.9889 234.172 32.8559 234.639 32.8559C235.25 32.8559 235.775 33.0776 236.212 33.521C236.648 33.9643 236.867 34.4816 236.867 35.0727C236.867 35.8708 236.459 36.595 235.643 37.2452C234.828 37.9251 233.735 38.5014 232.366 38.9744C230.997 39.4473 229.614 39.6838 228.215 39.6838C225.768 39.6838 223.627 39.1665 221.792 38.132C219.986 37.0975 218.588 35.6787 217.597 33.8757C216.607 32.0431 216.112 29.9888 216.112 27.7129C216.112 25.1709 216.636 22.9393 217.685 21.0181C218.734 19.0968 220.117 17.6337 221.836 16.6287C223.555 15.5942 225.39 15.077 227.341 15.077C229.264 15.077 231.07 15.609 232.76 16.6731C234.478 17.7372 235.847 19.1707 236.867 20.9737C237.887 22.7767 238.396 24.7276 238.396 26.8262ZM227.341 19.954C223.962 19.954 221.967 21.5649 221.355 24.7867H232.803V24.4763C232.687 23.2349 232.09 22.1708 231.012 21.2841C229.934 20.3974 228.711 19.954 227.341 19.954Z" fill="white"/>
<path d="M263.743 26.8262C263.714 27.5355 263.437 28.1119 262.913 28.5553C262.388 28.9986 261.777 29.2203 261.077 29.2203H246.658C247.008 30.9642 247.809 32.3387 249.061 33.3436C250.314 34.319 251.727 34.8067 253.3 34.8067C254.494 34.8067 255.426 34.7033 256.096 34.4964C256.766 34.2599 257.291 34.0234 257.669 33.787C258.077 33.521 258.354 33.3436 258.499 33.2549C259.024 32.9889 259.519 32.8559 259.985 32.8559C260.597 32.8559 261.121 33.0776 261.558 33.521C261.995 33.9643 262.214 34.4816 262.214 35.0727C262.214 35.8708 261.806 36.595 260.99 37.2452C260.174 37.9251 259.082 38.5014 257.713 38.9744C256.344 39.4473 254.96 39.6838 253.562 39.6838C251.115 39.6838 248.974 39.1665 247.139 38.132C245.333 37.0975 243.934 35.6787 242.944 33.8757C241.954 32.0431 241.458 29.9888 241.458 27.7129C241.458 25.1709 241.983 22.9393 243.031 21.0181C244.08 19.0968 245.464 17.6337 247.182 16.6287C248.901 15.5942 250.736 15.077 252.688 15.077C254.611 15.077 256.417 15.609 258.106 16.6731C259.825 17.7372 261.194 19.1707 262.214 20.9737C263.233 22.7767 263.743 24.7276 263.743 26.8262ZM252.688 19.954C249.309 19.954 247.313 21.5649 246.702 24.7867H258.15V24.4763C258.033 23.2349 257.436 22.1708 256.358 21.2841C255.281 20.3974 254.057 19.954 252.688 19.954Z" fill="white"/>
<path d="M280.219 15.077C282.229 15.077 284.05 15.609 285.681 16.6731C287.312 17.7076 288.594 19.1559 289.526 21.0181C290.488 22.8802 290.968 24.9936 290.968 27.3582C290.968 29.7228 290.502 31.851 289.57 33.7427C288.638 35.6048 287.356 37.0679 285.725 38.132C284.123 39.1665 282.346 39.6838 280.394 39.6838C278.996 39.6838 277.67 39.403 276.418 38.8414C275.194 38.2502 274.175 37.5408 273.359 36.7132V45.4032C273.359 46.1717 273.112 46.8072 272.616 47.3096C272.121 47.8417 271.495 48.1077 270.737 48.1077C269.98 48.1077 269.354 47.8564 268.859 47.354C268.363 46.8515 268.116 46.2012 268.116 45.4032V18.2249C268.116 17.4564 268.363 16.8209 268.859 16.3184C269.354 15.7864 269.98 15.5203 270.737 15.5203C271.495 15.5203 272.121 15.7864 272.616 16.3184C273.112 16.8209 273.359 17.4564 273.359 18.2249V18.4022C274.058 17.5155 275.034 16.747 276.287 16.0967C277.539 15.4169 278.85 15.077 280.219 15.077ZM279.564 34.8067C281.428 34.8067 282.957 34.0973 284.152 32.6786C285.346 31.2598 285.943 29.4863 285.943 27.3582C285.943 25.23 285.346 23.4714 284.152 22.0821C282.987 20.6634 281.457 19.954 279.564 19.954C277.67 19.954 276.126 20.6634 274.932 22.0821C273.738 23.4714 273.141 25.23 273.141 27.3582C273.141 29.4863 273.738 31.2598 274.932 32.6786C276.126 34.0973 277.67 34.8067 279.564 34.8067Z" fill="white"/>
<path d="M316.313 26.8262C316.284 27.5355 316.008 28.1119 315.483 28.5553C314.959 28.9986 314.347 29.2203 313.648 29.2203H299.229C299.578 30.9642 300.379 32.3387 301.632 33.3436C302.884 34.319 304.297 34.8067 305.87 34.8067C307.065 34.8067 307.997 34.7033 308.667 34.4964C309.337 34.2599 309.861 34.0234 310.24 33.787C310.648 33.521 310.924 33.3436 311.07 33.2549C311.594 32.9889 312.09 32.8559 312.556 32.8559C313.167 32.8559 313.692 33.0776 314.129 33.521C314.566 33.9643 314.784 34.4816 314.784 35.0727C314.784 35.8708 314.376 36.595 313.561 37.2452C312.745 37.9251 311.653 38.5014 310.284 38.9744C308.914 39.4473 307.531 39.6838 306.133 39.6838C303.686 39.6838 301.545 39.1665 299.709 38.132C297.903 37.0975 296.505 35.6787 295.515 33.8757C294.524 32.0431 294.029 29.9888 294.029 27.7129C294.029 25.1709 294.553 22.9393 295.602 21.0181C296.651 19.0968 298.034 17.6337 299.753 16.6287C301.472 15.5942 303.307 15.077 305.259 15.077C307.181 15.077 308.987 15.609 310.677 16.6731C312.395 17.7372 313.765 19.1707 314.784 20.9737C315.804 22.7767 316.313 24.7276 316.313 26.8262ZM305.259 19.954C301.88 19.954 299.884 21.5649 299.272 24.7867H310.72V24.4763C310.604 23.2349 310.007 22.1708 308.929 21.2841C307.851 20.3974 306.628 19.954 305.259 19.954Z" fill="white"/>
<path d="M332.834 15.077C333.708 15.077 334.436 15.3282 335.018 15.8307C335.63 16.3332 335.936 16.9243 335.936 17.6042C335.936 18.5204 335.703 19.215 335.237 19.688C334.771 20.1313 334.217 20.353 333.576 20.353C333.139 20.353 332.644 20.2496 332.091 20.0427C332.003 20.0131 331.799 19.954 331.479 19.8653C331.188 19.7766 330.867 19.7323 330.518 19.7323C329.76 19.7323 329.032 19.9688 328.333 20.4417C327.634 20.9146 327.051 21.6388 326.585 22.6142C326.148 23.56 325.93 24.698 325.93 26.0281V36.5359C325.93 37.3044 325.682 37.9546 325.187 38.4867C324.692 38.9891 324.065 39.2404 323.308 39.2404C322.551 39.2404 321.924 38.9891 321.429 38.4867C320.934 37.9546 320.686 37.3044 320.686 36.5359V18.2249C320.686 17.4564 320.934 16.8209 321.429 16.3184C321.924 15.7864 322.551 15.5203 323.308 15.5203C324.065 15.5203 324.692 15.7864 325.187 16.3184C325.682 16.8209 325.93 17.4564 325.93 18.2249V18.8012C326.6 17.5894 327.561 16.6731 328.814 16.0524C330.066 15.4021 331.406 15.077 332.834 15.077Z" fill="white"/>
<path d="M298.6 46.3179C298.987 46.3179 299.337 46.419 299.65 46.6211C299.964 46.8233 300.208 47.1034 300.385 47.4615C300.567 47.8196 300.658 48.2239 300.658 48.6744C300.658 49.1249 300.567 49.5321 300.385 49.8959C300.208 50.2598 299.964 50.5428 299.65 50.7449C299.337 50.9471 298.993 51.0482 298.617 51.0482C298.321 51.0482 298.045 50.9818 297.789 50.8489C297.533 50.7161 297.325 50.5515 297.166 50.3551V50.6063C297.166 50.7218 297.126 50.82 297.046 50.9009C296.972 50.9818 296.876 51.0222 296.756 51.0222C296.642 51.0222 296.545 50.9846 296.466 50.9096C296.392 50.8287 296.355 50.7276 296.355 50.6063V44.9664C296.355 44.8451 296.392 44.7469 296.466 44.6719C296.54 44.591 296.636 44.5506 296.756 44.5506C296.876 44.5506 296.972 44.591 297.046 44.6719C297.126 44.7527 297.166 44.8509 297.166 44.9664V47.0803C297.302 46.8724 297.502 46.6933 297.764 46.5432C298.025 46.393 298.304 46.3179 298.6 46.3179ZM298.506 50.2858C298.768 50.2858 299.004 50.2165 299.215 50.0779C299.426 49.9335 299.588 49.74 299.702 49.4974C299.821 49.2491 299.881 48.9747 299.881 48.6744C299.881 48.3741 299.821 48.1026 299.702 47.86C299.588 47.6174 299.426 47.4268 299.215 47.2882C299.004 47.1496 298.768 47.0803 298.506 47.0803C298.239 47.0803 298 47.1496 297.789 47.2882C297.579 47.4268 297.413 47.6174 297.294 47.86C297.18 48.0968 297.123 48.3683 297.123 48.6744C297.123 48.9805 297.18 49.2548 297.294 49.4974C297.413 49.74 297.579 49.9335 297.789 50.0779C298 50.2165 298.239 50.2858 298.506 50.2858Z" fill="white"/>
<path d="M304.929 46.3786C305.049 46.3786 305.145 46.419 305.219 46.4999C305.299 46.5807 305.339 46.6789 305.339 46.7944V50.537C305.339 51.259 305.143 51.799 304.75 52.1571C304.357 52.5152 303.839 52.6942 303.196 52.6942C302.985 52.6942 302.778 52.674 302.573 52.6336C302.368 52.5932 302.2 52.5383 302.069 52.469C301.858 52.3708 301.753 52.238 301.753 52.0705C301.753 52.0416 301.759 52.004 301.77 51.9578C301.804 51.8596 301.853 51.7846 301.915 51.7326C301.978 51.6806 302.049 51.6546 302.129 51.6546C302.174 51.6546 302.217 51.6633 302.257 51.6806C302.433 51.7615 302.59 51.825 302.726 51.8712C302.863 51.9174 303.022 51.9405 303.204 51.9405C304.087 51.9405 304.528 51.4813 304.528 50.563V50.3897C304.374 50.5977 304.175 50.7594 303.93 50.8749C303.691 50.9904 303.415 51.0482 303.102 51.0482C302.63 51.0482 302.26 50.8951 301.992 50.589C301.73 50.2829 301.599 49.8815 301.599 49.3848V46.7944C301.599 46.6731 301.636 46.5749 301.71 46.4999C301.784 46.419 301.881 46.3786 302.001 46.3786C302.12 46.3786 302.217 46.419 302.291 46.4999C302.371 46.5807 302.41 46.6789 302.41 46.7944V49.1682C302.41 49.5494 302.493 49.8324 302.658 50.0172C302.823 50.1963 303.074 50.2858 303.409 50.2858C303.734 50.2858 304.001 50.1818 304.212 49.9739C304.423 49.766 304.528 49.4974 304.528 49.1682V46.7944C304.528 46.6731 304.565 46.5749 304.639 46.4999C304.713 46.419 304.81 46.3786 304.929 46.3786Z" fill="white"/>
<path d="M315.407 43.9798C315.604 43.9798 315.762 44.0404 315.881 44.1617C316.001 44.283 316.061 44.44 316.061 44.6326V50.8183C316.061 51.0038 315.997 51.1608 315.871 51.2892C315.744 51.4105 315.583 51.4712 315.386 51.4712C315.21 51.4712 315.059 51.4105 314.932 51.2892C314.806 51.1608 314.742 51.0038 314.742 50.8183V48.3248H311.378V50.8183C311.378 51.0038 311.311 51.1608 311.177 51.2892C311.044 51.4105 310.889 51.4712 310.713 51.4712C310.523 51.4712 310.365 51.4105 310.239 51.2892C310.119 51.1608 310.059 51.0038 310.059 50.8183V44.6326C310.059 44.4471 310.123 44.2937 310.249 44.1724C310.376 44.044 310.538 43.9798 310.734 43.9798C310.91 43.9798 311.061 44.044 311.188 44.1724C311.315 44.2937 311.378 44.4471 311.378 44.6326V47.0941H314.742V44.6326C314.742 44.4471 314.809 44.2937 314.943 44.1724C315.076 44.044 315.231 43.9798 315.407 43.9798Z" fill="white"/>
<path d="M322.956 48.6137C322.956 49.1845 322.829 49.6982 322.576 50.1548C322.323 50.6043 321.975 50.9539 321.532 51.2036C321.096 51.4533 320.614 51.5782 320.087 51.5782C319.553 51.5782 319.067 51.4533 318.632 51.2036C318.196 50.9539 317.851 50.6043 317.598 50.1548C317.345 49.6982 317.218 49.1845 317.218 48.6137C317.218 48.043 317.345 47.5328 317.598 47.0834C317.851 46.6267 318.196 46.2736 318.632 46.0239C319.067 45.767 319.553 45.6386 320.087 45.6386C320.614 45.6386 321.096 45.767 321.532 46.0239C321.975 46.2736 322.323 46.6267 322.576 47.0834C322.829 47.5328 322.956 48.043 322.956 48.6137ZM321.69 48.6137C321.69 48.2641 321.616 47.9538 321.469 47.6827C321.328 47.4044 321.135 47.1904 320.889 47.0406C320.65 46.8907 320.382 46.8158 320.087 46.8158C319.792 46.8158 319.521 46.8907 319.275 47.0406C319.036 47.1904 318.842 47.4044 318.695 47.6827C318.554 47.9538 318.484 48.2641 318.484 48.6137C318.484 48.9633 318.554 49.2737 318.695 49.5448C318.842 49.8159 319.036 50.0264 319.275 50.1762C319.521 50.326 319.792 50.401 320.087 50.401C320.382 50.401 320.65 50.326 320.889 50.1762C321.135 50.0264 321.328 49.8159 321.469 49.5448C321.616 49.2737 321.69 48.9633 321.69 48.6137Z" fill="white"/>
<path d="M323.686 50.5829C323.623 50.4973 323.591 50.3903 323.591 50.2618C323.591 50.0763 323.683 49.9194 323.866 49.791C323.964 49.7267 324.066 49.6946 324.171 49.6946C324.319 49.6946 324.46 49.7624 324.593 49.898C324.804 50.1191 325.022 50.2832 325.247 50.3903C325.479 50.4973 325.757 50.5508 326.081 50.5508C326.629 50.5294 326.903 50.3189 326.903 49.9194C326.903 49.7125 326.808 49.5555 326.618 49.4485C326.436 49.3415 326.147 49.2345 325.754 49.1274C325.346 49.0133 325.012 48.8991 324.752 48.785C324.498 48.6708 324.277 48.4996 324.087 48.2713C323.904 48.0358 323.813 47.7219 323.813 47.3295C323.813 46.987 323.908 46.691 324.098 46.4412C324.295 46.1844 324.548 45.9882 324.857 45.8526C325.173 45.7099 325.507 45.6386 325.859 45.6386C326.218 45.6386 326.576 45.7064 326.935 45.8419C327.293 45.9775 327.575 46.1773 327.779 46.4412C327.87 46.5554 327.916 46.6838 327.916 46.8265C327.916 46.9906 327.849 47.1262 327.715 47.2332C327.617 47.3117 327.504 47.3509 327.378 47.3509C327.223 47.3509 327.097 47.301 326.998 47.2011C326.872 47.0441 326.706 46.9193 326.502 46.8265C326.305 46.7338 326.08 46.6874 325.827 46.6874C325.293 46.6874 325.026 46.8836 325.026 47.276C325.026 47.433 325.075 47.5614 325.173 47.6613C325.272 47.754 325.395 47.8289 325.543 47.886C325.697 47.9359 325.912 48.0002 326.186 48.0786C326.566 48.1857 326.882 48.2962 327.135 48.4104C327.388 48.5246 327.603 48.6994 327.779 48.9348C327.954 49.1702 328.042 49.4806 328.042 49.8659C328.042 50.2155 327.94 50.5222 327.736 50.7862C327.532 51.0431 327.269 51.2393 326.945 51.3748C326.629 51.5104 326.302 51.5782 325.964 51.5782C325.5 51.5782 325.068 51.4997 324.667 51.3427C324.266 51.1858 323.939 50.9325 323.686 50.5829Z" fill="white"/>
<path d="M333.289 45.7456C333.471 45.7456 333.623 45.8098 333.742 45.9383C333.862 46.0595 333.921 46.2129 333.921 46.3984V49.1167C333.921 49.8873 333.711 50.4901 333.289 50.9254C332.874 51.3606 332.28 51.5782 331.506 51.5782C330.733 51.5782 330.139 51.3606 329.724 50.9254C329.309 50.4901 329.101 49.8873 329.101 49.1167V46.3984C329.101 46.2129 329.161 46.0595 329.281 45.9383C329.4 45.8098 329.551 45.7456 329.734 45.7456C329.917 45.7456 330.068 45.8098 330.188 45.9383C330.307 46.0595 330.367 46.2129 330.367 46.3984V49.1167C330.367 49.5519 330.462 49.8766 330.652 50.0906C330.842 50.2975 331.126 50.401 331.506 50.401C331.893 50.401 332.181 50.2975 332.371 50.0906C332.561 49.8766 332.656 49.5519 332.656 49.1167V46.3984C332.656 46.2129 332.716 46.0595 332.835 45.9383C332.955 45.8098 333.106 45.7456 333.289 45.7456Z" fill="white"/>
</svg>
