<svg width="81" height="65" viewBox="0 0 81 65" fill="none" xmlns="http://www.w3.org/2000/svg">
<path d="M64.8192 24.3157L63.7813 26.1373C63.4016 26.8124 62.5915 27.0926 61.87 26.8251C60.3765 26.2646 59.0095 25.4621 57.8071 24.4558C57.2248 23.9718 57.0729 23.1183 57.4527 22.4559L58.4906 20.6343C57.6172 19.6153 56.9337 18.4306 56.478 17.1441H54.3896C53.6301 17.1441 52.972 16.5963 52.8454 15.832C52.5923 14.3034 52.5796 12.6984 52.8454 11.1062C52.972 10.3419 53.6301 9.78138 54.3896 9.78138H56.478C56.9337 8.49482 57.6172 7.31016 58.4906 6.29111L57.4527 4.46954C57.0729 3.80715 57.2122 2.95369 57.8071 2.46964C59.0095 1.46332 60.3891 0.66081 61.87 0.100328C62.5915 -0.167174 63.4016 0.113067 63.7813 0.788193L64.8192 2.60976C66.1482 2.36773 67.5025 2.36773 68.8316 2.60976L69.8695 0.788193C70.2492 0.113067 71.0592 -0.167174 71.7807 0.100328C73.2743 0.66081 74.6413 1.46332 75.8437 2.46964C76.4259 2.95369 76.5778 3.80715 76.1981 4.46954L75.1602 6.29111C76.0336 7.31016 76.7171 8.49482 77.1727 9.78138H79.2612C80.0206 9.78138 80.6788 10.3291 80.8054 11.0934C81.0585 12.622 81.0712 14.227 80.8054 15.8193C80.6788 16.5836 80.0206 17.1441 79.2612 17.1441H77.1727C76.7171 18.4306 76.0336 19.6153 75.1602 20.6343L76.1981 22.4559C76.5778 23.1183 76.4386 23.9718 75.8437 24.4558C74.6413 25.4621 73.2616 26.2646 71.7807 26.8251C71.0592 27.0926 70.2492 26.8124 69.8695 26.1373L68.8316 24.3157C67.5152 24.5577 66.1482 24.5577 64.8192 24.3157ZM63.4902 16.8256C68.3632 20.5961 73.9198 15.0041 70.1732 10.0998C65.3002 6.31658 59.7436 11.9214 63.4902 16.8256ZM48.8963 36.4297L53.1618 38.5698C54.4402 39.3086 54.9971 40.8754 54.4908 42.2766C53.3643 45.3592 51.1493 48.1871 49.0988 50.6583C48.1622 51.792 46.5421 52.0723 45.2637 51.3335L41.5804 49.1934C39.5552 50.9386 37.201 52.327 34.6315 53.2315V57.5115C34.6315 58.9891 33.581 60.263 32.1381 60.5177C29.0244 61.0527 25.7588 61.0782 22.5312 60.5177C21.0756 60.263 19.9997 59.0019 19.9997 57.5115V53.2315C17.4303 52.3143 15.076 50.9386 13.0509 49.1934L9.36759 51.3207C8.10186 52.0595 6.46907 51.7793 5.53243 50.6456C3.48194 48.1744 1.31755 45.3465 0.191048 42.2766C-0.315244 40.8881 0.241677 39.3213 1.52006 38.5698L5.73494 36.4297C5.24131 33.7675 5.24131 31.0287 5.73494 28.3537L1.52006 26.2009C0.241677 25.4621 -0.327901 23.8953 0.191048 22.5069C1.31755 19.4242 3.48194 16.5963 5.53243 14.1251C6.46907 12.9914 8.0892 12.7112 9.36759 13.45L13.0509 15.59C15.076 13.8449 17.4303 12.4564 19.9997 11.552V7.25921C19.9997 5.79431 21.0376 4.52049 22.4805 4.26573C25.5942 3.73072 28.8725 3.70525 32.1001 4.25299C33.5557 4.50775 34.6315 5.76884 34.6315 7.25921V11.5393C37.201 12.4564 39.5552 13.8321 41.5804 15.5773L45.2637 13.4372C46.5294 12.6984 48.1622 12.9787 49.0988 14.1124C51.1493 16.5836 53.3011 19.4115 54.4276 22.4941C54.9338 23.8826 54.4402 25.4494 53.1618 26.2009L48.8963 28.341C49.39 31.016 49.39 33.7547 48.8963 36.4297ZM34.0113 39.1175C41.5045 29.3091 30.3787 18.1122 20.6326 25.6532C13.1395 35.4616 24.2652 46.6585 34.0113 39.1175ZM64.8192 62.3902L63.7813 64.2118C63.4016 64.8869 62.5915 65.1672 61.87 64.8997C60.3765 64.3392 59.0095 63.5367 57.8071 62.5304C57.2248 62.0463 57.0729 61.1928 57.4527 60.5305L58.4906 58.7089C57.6172 57.6898 56.9337 56.5052 56.478 55.2186H54.3896C53.6301 55.2186 52.972 54.6709 52.8454 53.9066C52.5923 52.378 52.5796 50.773 52.8454 49.1807C52.972 48.4164 53.6301 47.8559 54.3896 47.8559H56.478C56.9337 46.5694 57.6172 45.3847 58.4906 44.3657L57.4527 42.5441C57.0729 41.8817 57.2122 41.0282 57.8071 40.5442C59.0095 39.5379 60.3891 38.7354 61.87 38.1749C62.5915 37.9074 63.4016 38.1876 63.7813 38.8627L64.8192 40.6843C66.1482 40.4423 67.5025 40.4423 68.8316 40.6843L69.8695 38.8627C70.2492 38.1876 71.0592 37.9074 71.7807 38.1749C73.2743 38.7354 74.6413 39.5379 75.8437 40.5442C76.4259 41.0282 76.5778 41.8817 76.1981 42.5441L75.1602 44.3657C76.0336 45.3847 76.7171 46.5694 77.1727 47.8559H79.2612C80.0206 47.8559 80.6788 48.4037 80.8054 49.168C81.0585 50.6966 81.0712 52.3016 80.8054 53.8938C80.6788 54.6581 80.0206 55.2186 79.2612 55.2186H77.1727C76.7171 56.5052 76.0336 57.6898 75.1602 58.7089L76.1981 60.5305C76.5778 61.1928 76.4386 62.0463 75.8437 62.5304C74.6413 63.5367 73.2616 64.3392 71.7807 64.8997C71.0592 65.1672 70.2492 64.8869 69.8695 64.2118L68.8316 62.3902C67.5152 62.6323 66.1482 62.6323 64.8192 62.3902ZM63.4902 54.8874C68.3632 58.6579 73.9198 53.0659 70.1732 48.1616C65.3002 44.3911 59.7436 49.9832 63.4902 54.8874Z" fill="white"/>
</svg>
