<svg width="57" height="54" viewBox="0 0 57 54" fill="none" xmlns="http://www.w3.org/2000/svg">
<path d="M53.4822 18.1539L38.337 15.9491L31.569 2.25131C30.9605 1.02732 29.7737 0.4086 28.5869 0.4086C27.4073 0.4086 26.2288 1.01904 25.6183 2.25131L18.8482 15.948L3.70196 18.1508C0.985833 18.544 -0.10269 21.8849 1.86638 23.799L12.823 34.4559L10.23 49.508C9.86163 51.658 11.5782 53.3827 13.5007 53.3827C14.0108 53.3827 14.5355 53.2617 15.0394 52.9947L28.589 45.8888L42.1376 52.9968C42.6404 53.2607 43.164 53.3807 43.672 53.3807C45.5966 53.3807 47.3163 51.6621 46.948 49.5111L44.3581 34.4579L55.3168 23.8031C57.2869 21.889 56.1983 18.5471 53.4822 18.1539V18.1539ZM40.8856 30.9008L39.0106 32.7239L39.4535 35.2981L41.4733 47.0362L30.9057 41.4915L28.59 40.2768L28.5931 7.45871L33.8733 18.1456L35.0301 20.487L37.6179 20.8637L49.4375 22.5843L40.8856 30.9008V30.9008Z" fill="white"/>
</svg>
