<svg width="37" height="49" viewBox="0 0 37 49" fill="none" xmlns="http://www.w3.org/2000/svg">
<path d="M32.1562 6.125H24.5C24.5 2.74668 21.7533 0 18.375 0C14.9967 0 12.25 2.74668 12.25 6.125H4.59375C2.05762 6.125 0 8.18262 0 10.7188V44.4062C0 46.9424 2.05762 49 4.59375 49H32.1562C34.6924 49 36.75 46.9424 36.75 44.4062V10.7188C36.75 8.18262 34.6924 6.125 32.1562 6.125ZM9.1875 40.5781C7.91465 40.5781 6.89062 39.5541 6.89062 38.2812C6.89062 37.0084 7.91465 35.9844 9.1875 35.9844C10.4604 35.9844 11.4844 37.0084 11.4844 38.2812C11.4844 39.5541 10.4604 40.5781 9.1875 40.5781ZM9.1875 31.3906C7.91465 31.3906 6.89062 30.3666 6.89062 29.0938C6.89062 27.8209 7.91465 26.7969 9.1875 26.7969C10.4604 26.7969 11.4844 27.8209 11.4844 29.0938C11.4844 30.3666 10.4604 31.3906 9.1875 31.3906ZM9.1875 22.2031C7.91465 22.2031 6.89062 21.1791 6.89062 19.9062C6.89062 18.6334 7.91465 17.6094 9.1875 17.6094C10.4604 17.6094 11.4844 18.6334 11.4844 19.9062C11.4844 21.1791 10.4604 22.2031 9.1875 22.2031ZM18.375 3.82812C19.6479 3.82812 20.6719 4.85215 20.6719 6.125C20.6719 7.39785 19.6479 8.42188 18.375 8.42188C17.1021 8.42188 16.0781 7.39785 16.0781 6.125C16.0781 4.85215 17.1021 3.82812 18.375 3.82812ZM30.625 39.0469C30.625 39.468 30.2805 39.8125 29.8594 39.8125H16.0781C15.657 39.8125 15.3125 39.468 15.3125 39.0469V37.5156C15.3125 37.0945 15.657 36.75 16.0781 36.75H29.8594C30.2805 36.75 30.625 37.0945 30.625 37.5156V39.0469ZM30.625 29.8594C30.625 30.2805 30.2805 30.625 29.8594 30.625H16.0781C15.657 30.625 15.3125 30.2805 15.3125 29.8594V28.3281C15.3125 27.907 15.657 27.5625 16.0781 27.5625H29.8594C30.2805 27.5625 30.625 27.907 30.625 28.3281V29.8594ZM30.625 20.6719C30.625 21.093 30.2805 21.4375 29.8594 21.4375H16.0781C15.657 21.4375 15.3125 21.093 15.3125 20.6719V19.1406C15.3125 18.7195 15.657 18.375 16.0781 18.375H29.8594C30.2805 18.375 30.625 18.7195 30.625 19.1406V20.6719Z" fill="white"/>
</svg>
